<svg class="brp-logo" xmlns="http://www.w3.org/2000/svg" width="92.662" height="92.663" viewBox="0 0 92.662 92.663" xmlns:xlink="http://www.w3.org/1999/xlink">
 <g>
  <g>
   <g>
    <path d="M23.241,10.882a45.471,45.471,0,1,0,63.027,12.38A45.318,45.318,0,0,0,23.241,10.882Z" transform="translate(-2.046 -2.254)" fill="none">
    </path>
    <path d="M48.932,2.7A46.337,46.337,0,1,0,87.385,23.146,45.854,45.854,0,0,0,48.932,2.7Z" transform="translate(-2.601 -2.7)" fill="#333132">
    </path>
   </g>
  </g>
 </g>
 <path d="M88.783,39.215h-.375c-14.068-.188-13.318-3.376-3.376-10.692h.188a47.707,47.707,0,0,0-3-5.252A42.221,42.221,0,0,0,76.4,16.33l-.188.188c-11.442,8.253-12.755,4.877-9-6.753V9.577A43.532,43.532,0,0,0,52.768,4.888v.188c-4.5,13.318-7.316,11.442-11.255-.188V4.7A43.087,43.087,0,0,0,26.507,9.765a.184.184,0,0,0,.188.188c4.5,13.318,1.125,13.693-9,6.565H17.5a40.306,40.306,0,0,0-9,12.943h0a.184.184,0,0,1,.188.188c11.63,8.066,9,10.317-3.189,10.692H5.31a42.12,42.12,0,0,0,6.753,29.637A42.558,42.558,0,0,0,26.507,83.3L32.884,68.1a29.314,29.314,0,0,1-7.316-7.128A26.143,26.143,0,0,1,68.9,31.711a25.312,25.312,0,0,1,4.314,12.755H89.533c-.188-1.5-.375-3.376-.75-5.252Z" transform="translate(-0.621 -0.948)" fill="#fff">
 </path>
 <g transform="translate(38.078 49.709)">
  <path d="M31.665,33.1h-5.44l-1.125,3h5.44a2.692,2.692,0,0,0,2.439-1.313C33.353,33.85,32.791,33.1,31.665,33.1Z" transform="translate(-20.973 -25.784)" fill="none">
  </path>
  <path d="M32.478,30.6H27.225L26.1,33.414h5.44A2.259,2.259,0,0,0,33.416,32.1C33.791,31.163,33.416,30.6,32.478,30.6Z" transform="translate(-20.097 -27.974)" fill="none">
  </path>
  <path d="M36.593,29.2H27.965a.184.184,0,0,0-.188.188L22.9,41.955h0a.184.184,0,0,0,.188.188H31.9a6.561,6.561,0,0,0,6.19-3.752,2.3,2.3,0,0,0-.75-3,4.7,4.7,0,0,0,2.251-2.439,2.392,2.392,0,0,0,0-2.251A3.2,3.2,0,0,0,36.593,29.2Zm-1.688,8.816c-.375.938-1.125,1.313-2.439,1.313h-5.44l1.125-3h5.44C34.717,36.516,35.28,37.266,34.905,38.016Zm1.313-4.689a2.259,2.259,0,0,1-1.876,1.313H28.9l1.125-2.814H35.28C36.218,31.826,36.593,32.389,36.218,33.327Z" transform="translate(-22.9 -29.2)" fill="#fff">
  </path>
 </g>
 <g transform="translate(70.904 49.709)">
  <path d="M49.89,30.7H44.825L43.7,33.514h5.065A2.111,2.111,0,0,0,50.828,32.2C51.2,31.075,50.828,30.7,49.89,30.7Z" transform="translate(-37.51 -27.886)" fill="none">
  </path>
  <path d="M53.906,29.2H45.465a.184.184,0,0,0-.188.188L40.4,41.955h0a.184.184,0,0,0,.188.188H43.4c.188,0,.188,0,.188-.188h0l1.876-4.689h5.252c3.189,0,5.252-1.125,6.19-3.752C58.032,30.888,56.719,29.2,53.906,29.2Zm-.188,4.127a2.307,2.307,0,0,1-2.063,1.313H46.59l1.125-2.814H52.78C53.718,32.014,54.093,32.389,53.718,33.327Z" transform="translate(-40.4 -29.2)" fill="#fff">
  </path>
 </g>
 <g transform="translate(54.96 49.709)">
  <path d="M41.39,30.7H36.325L35.2,33.326h5.065a2.111,2.111,0,0,0,2.063-1.313C42.7,31.075,42.328,30.7,41.39,30.7Z" transform="translate(-29.01 -27.886)" fill="none">
  </path>
  <path d="M45.406,29.2H36.965a.184.184,0,0,0-.188.188L31.9,41.955h0a.184.184,0,0,0,.188.188h3a.184.184,0,0,0,.188-.188l1.876-4.877h3.189l1.5,4.877.188.188h3.376a.184.184,0,0,0,.188-.188h0l-1.688-4.877a5.325,5.325,0,0,0,4.689-3.564C49.345,31.263,48.595,29.2,45.406,29.2Zm-.188,4.127a2.307,2.307,0,0,1-2.063,1.313H38.09l1.125-2.626H44.28C45.218,32.014,45.593,32.389,45.218,33.327Z" transform="translate(-31.9 -29.2)" fill="#fff">
  </path>
 </g>
</svg>